%TF.GenerationSoftware,KiCad,Pcbnew,10.0.3*%
%TF.CreationDate,2026-06-03T20:37:56-07:00*%
%TF.ProjectId,HACKKY CLUBB,4841434b-4b59-4204-934c-5542422e6b69,rev?*%
%TF.SameCoordinates,Original*%
%TF.FileFunction,Copper,L2,Bot*%
%TF.FilePolarity,Positive*%
%FSLAX46Y46*%
G04 Gerber Fmt 4.6, Leading zero omitted, Abs format (unit mm)*
G04 Created by KiCad (PCBNEW 10.0.3) date 2026-06-03 20:37:56*
%MOMM*%
%LPD*%
G01*
G04 APERTURE LIST*
G04 Aperture macros list*
%AMRoundRect*
0 Rectangle with rounded corners*
0 $1 Rounding radius*
0 $2 $3 $4 $5 $6 $7 $8 $9 X,Y pos of 4 corners*
0 Add a 4 corners polygon primitive as box body*
4,1,4,$2,$3,$4,$5,$6,$7,$8,$9,$2,$3,0*
0 Add four circle primitives for the rounded corners*
1,1,$1+$1,$2,$3*
1,1,$1+$1,$4,$5*
1,1,$1+$1,$6,$7*
1,1,$1+$1,$8,$9*
0 Add four rect primitives between the rounded corners*
20,1,$1+$1,$2,$3,$4,$5,0*
20,1,$1+$1,$4,$5,$6,$7,0*
20,1,$1+$1,$6,$7,$8,$9,0*
20,1,$1+$1,$8,$9,$2,$3,0*%
G04 Aperture macros list end*
%TA.AperFunction,ComponentPad*%
%ADD10R,1.800000X1.800000*%
%TD*%
%TA.AperFunction,ComponentPad*%
%ADD11C,1.800000*%
%TD*%
%TA.AperFunction,ComponentPad*%
%ADD12RoundRect,0.412500X-0.412500X-0.412500X0.412500X-0.412500X0.412500X0.412500X-0.412500X0.412500X0*%
%TD*%
%TA.AperFunction,ComponentPad*%
%ADD13C,1.650000*%
%TD*%
%TA.AperFunction,ComponentPad*%
%ADD14C,1.600000*%
%TD*%
%TA.AperFunction,ComponentPad*%
%ADD15RoundRect,0.250000X-0.550000X-0.550000X0.550000X-0.550000X0.550000X0.550000X-0.550000X0.550000X0*%
%TD*%
%TA.AperFunction,ComponentPad*%
%ADD16R,1.700000X1.700000*%
%TD*%
%TA.AperFunction,ComponentPad*%
%ADD17C,1.700000*%
%TD*%
%TA.AperFunction,ComponentPad*%
%ADD18C,2.000000*%
%TD*%
G04 APERTURE END LIST*
D10*
%TO.P,D1,1,K_1*%
%TO.N,Net-(D1-K)*%
X117500000Y-68000000D03*
D11*
%TO.P,D1,2,A_2*%
%TO.N,Net-(D1-A)*%
X120040000Y-68000000D03*
%TD*%
D12*
%TO.P,RV1,1,1_1*%
%TO.N,Net-(U1-DISCH)*%
X107690000Y-93415000D03*
D13*
%TO.P,RV1,2,2_2*%
X110230000Y-93415000D03*
%TO.P,RV1,3,3_3*%
%TO.N,Net-(U1-THRES)*%
X112770000Y-93415000D03*
%TD*%
D10*
%TO.P,D7,1,K_1*%
%TO.N,Net-(D1-K)*%
X118000000Y-116500000D03*
D11*
%TO.P,D7,2,A_2*%
%TO.N,Net-(D7-A)*%
X120540000Y-116500000D03*
%TD*%
D10*
%TO.P,D10,1,K_1*%
%TO.N,Net-(D1-K)*%
X132000000Y-80000000D03*
D11*
%TO.P,D10,2,A_2*%
%TO.N,Net-(D10-A)*%
X134540000Y-80000000D03*
%TD*%
D14*
%TO.P,R1,1*%
%TO.N,+5V*%
X106180000Y-98710000D03*
%TO.P,R1,2*%
%TO.N,Net-(U1-DISCH)*%
X113800000Y-98710000D03*
%TD*%
D10*
%TO.P,D6,1,K_1*%
%TO.N,Net-(D1-K)*%
X101000000Y-109500000D03*
D11*
%TO.P,D6,2,A_2*%
%TO.N,Net-(D6-A)*%
X103540000Y-109500000D03*
%TD*%
D10*
%TO.P,D9,1,K_1*%
%TO.N,Net-(D1-K)*%
X136500000Y-92500000D03*
D11*
%TO.P,D9,2,A_2*%
%TO.N,Net-(D9-A)*%
X139040000Y-92500000D03*
%TD*%
D15*
%TO.P,U1,1,GND_1*%
%TO.N,Net-(U1-GND)*%
X116500000Y-80500000D03*
D14*
%TO.P,U1,2,TRIG_2*%
%TO.N,Net-(U1-TRIG)*%
X116500000Y-83040000D03*
%TO.P,U1,3,OUT_3*%
%TO.N,Net-(J2-Pin_1)*%
X116500000Y-85580000D03*
%TO.P,U1,4,~{RST}_4*%
%TO.N,unconnected-(U1-~{RST}-Pad4)*%
X116500000Y-88120000D03*
%TO.P,U1,5,CONT_5*%
%TO.N,GND*%
X124120000Y-88120000D03*
%TO.P,U1,6,THRES_6*%
%TO.N,Net-(U1-THRES)*%
X124120000Y-85580000D03*
%TO.P,U1,7,DISCH_7*%
%TO.N,Net-(U1-DISCH)*%
X124120000Y-83040000D03*
%TO.P,U1,8,VCC_8*%
%TO.N,+5V*%
X124120000Y-80500000D03*
%TD*%
D16*
%TO.P,J2,1,Pin_1_1*%
%TO.N,Net-(J2-Pin_1)*%
X112000000Y-87000000D03*
%TD*%
D10*
%TO.P,D4,1,K_1*%
%TO.N,Net-(D1-K)*%
X83000000Y-92500000D03*
D11*
%TO.P,D4,2,A_2*%
%TO.N,Net-(D4-A)*%
X85540000Y-92500000D03*
%TD*%
D16*
%TO.P,J1,1,Pin_1_1*%
%TO.N,+5V*%
X117670000Y-103030000D03*
D17*
%TO.P,J1,2,Pin_2_2*%
%TO.N,GND*%
X117670000Y-105570000D03*
%TD*%
D10*
%TO.P,D2,1,K_1*%
%TO.N,Net-(D1-K)*%
X101000000Y-68000000D03*
D11*
%TO.P,D2,2,A_2*%
%TO.N,Net-(D2-A)*%
X103540000Y-68000000D03*
%TD*%
D10*
%TO.P,D5,1,K_1*%
%TO.N,Net-(D1-K)*%
X87000000Y-105000000D03*
D11*
%TO.P,D5,2,A_2*%
%TO.N,Net-(D5-A)*%
X89540000Y-105000000D03*
%TD*%
D15*
%TO.P,C1,1*%
%TO.N,Net-(U1-TRIG)*%
X118219775Y-93190000D03*
D14*
%TO.P,C1,2*%
%TO.N,GND*%
X120219775Y-93190000D03*
%TD*%
D18*
%TO.P,C2,1*%
%TO.N,Net-(U1-GND)*%
X117400000Y-98710000D03*
%TO.P,C2,2*%
%TO.N,GND*%
X122400000Y-98710000D03*
%TD*%
D14*
%TO.P,R2,1*%
%TO.N,Net-(D1-K)*%
X106180000Y-102760000D03*
%TO.P,R2,2*%
%TO.N,GND*%
X113800000Y-102760000D03*
%TD*%
D10*
%TO.P,D3,1,K_1*%
%TO.N,Net-(D1-K)*%
X86500000Y-80000000D03*
D11*
%TO.P,D3,2,A_2*%
%TO.N,Net-(D3-A)*%
X89040000Y-80000000D03*
%TD*%
D10*
%TO.P,D8,1,K_1*%
%TO.N,Net-(D1-K)*%
X131000000Y-106500000D03*
D11*
%TO.P,D8,2,A_2*%
%TO.N,Net-(D8-A)*%
X133540000Y-106500000D03*
%TD*%
M02*
