M48
; DRILL file KiCad 10.0.3 date 2026-06-03T20:38:14
; FORMAT={-:-/ absolute / metric / decimal}
; #@! TF.CreationDate,2026-06-03T20:38:14-07:00
; #@! TF.GenerationSoftware,Kicad,Pcbnew,10.0.3
; #@! TF.FileFunction,Plated,1,2,PTH
FMAT,2
METRIC
; #@! TA.AperFunction,Plated,PTH,ComponentDrill
T1C0.800
; #@! TA.AperFunction,Plated,PTH,ComponentDrill
T2C0.850
; #@! TA.AperFunction,Plated,PTH,ComponentDrill
T3C0.900
; #@! TA.AperFunction,Plated,PTH,ComponentDrill
T4C1.000
%
G90
G05
T1
X106.18Y-98.71
X106.18Y-102.76
X113.8Y-98.71
X113.8Y-102.76
X116.5Y-80.5
X116.5Y-83.04
X116.5Y-85.58
X116.5Y-88.12
X118.22Y-93.19
X120.22Y-93.19
X124.12Y-80.5
X124.12Y-83.04
X124.12Y-85.58
X124.12Y-88.12
T2
X107.69Y-93.415
X110.23Y-93.415
X112.77Y-93.415
T3
X83.0Y-92.5
X85.54Y-92.5
X86.5Y-80.0
X87.0Y-105.0
X89.04Y-80.0
X89.54Y-105.0
X101.0Y-68.0
X101.0Y-109.5
X103.54Y-68.0
X103.54Y-109.5
X117.5Y-68.0
X118.0Y-116.5
X120.04Y-68.0
X120.54Y-116.5
X131.0Y-106.5
X132.0Y-80.0
X133.54Y-106.5
X134.54Y-80.0
X136.5Y-92.5
X139.04Y-92.5
T4
X112.0Y-87.0
X117.4Y-98.71
X117.67Y-103.03
X117.67Y-105.57
X122.4Y-98.71
M30
