%TF.GenerationSoftware,KiCad,Pcbnew,10.0.3*%
%TF.CreationDate,2026-06-03T20:37:57-07:00*%
%TF.ProjectId,HACKKY CLUBB,4841434b-4b59-4204-934c-5542422e6b69,rev?*%
%TF.SameCoordinates,Original*%
%TF.FileFunction,Soldermask,Top*%
%TF.FilePolarity,Negative*%
%FSLAX46Y46*%
G04 Gerber Fmt 4.6, Leading zero omitted, Abs format (unit mm)*
G04 Created by KiCad (PCBNEW 10.0.3) date 2026-06-03 20:37:57*
%MOMM*%
%LPD*%
G01*
G04 APERTURE LIST*
G04 Aperture macros list*
%AMRoundRect*
0 Rectangle with rounded corners*
0 $1 Rounding radius*
0 $2 $3 $4 $5 $6 $7 $8 $9 X,Y pos of 4 corners*
0 Add a 4 corners polygon primitive as box body*
4,1,4,$2,$3,$4,$5,$6,$7,$8,$9,$2,$3,0*
0 Add four circle primitives for the rounded corners*
1,1,$1+$1,$2,$3*
1,1,$1+$1,$4,$5*
1,1,$1+$1,$6,$7*
1,1,$1+$1,$8,$9*
0 Add four rect primitives between the rounded corners*
20,1,$1+$1,$2,$3,$4,$5,0*
20,1,$1+$1,$4,$5,$6,$7,0*
20,1,$1+$1,$6,$7,$8,$9,0*
20,1,$1+$1,$8,$9,$2,$3,0*%
G04 Aperture macros list end*
%ADD10R,1.800000X1.800000*%
%ADD11C,1.800000*%
%ADD12RoundRect,0.412500X-0.412500X-0.412500X0.412500X-0.412500X0.412500X0.412500X-0.412500X0.412500X0*%
%ADD13C,1.650000*%
%ADD14C,1.600000*%
%ADD15RoundRect,0.250000X-0.550000X-0.550000X0.550000X-0.550000X0.550000X0.550000X-0.550000X0.550000X0*%
%ADD16R,2.159000X0.558800*%
%ADD17R,1.700000X1.700000*%
%ADD18C,1.700000*%
%ADD19C,2.000000*%
G04 APERTURE END LIST*
D10*
%TO.C,D1*%
X117500000Y-68000000D03*
D11*
X120040000Y-68000000D03*
%TD*%
D12*
%TO.C,RV1*%
X107690000Y-93415000D03*
D13*
X110230000Y-93415000D03*
X112770000Y-93415000D03*
%TD*%
D10*
%TO.C,D7*%
X118000000Y-116500000D03*
D11*
X120540000Y-116500000D03*
%TD*%
D10*
%TO.C,D10*%
X132000000Y-80000000D03*
D11*
X134540000Y-80000000D03*
%TD*%
D14*
%TO.C,R1*%
X106180000Y-98710000D03*
X113800000Y-98710000D03*
%TD*%
D10*
%TO.C,D6*%
X101000000Y-109500000D03*
D11*
X103540000Y-109500000D03*
%TD*%
D10*
%TO.C,D9*%
X136500000Y-92500000D03*
D11*
X139040000Y-92500000D03*
%TD*%
D15*
%TO.C,U1*%
X116500000Y-80500000D03*
D14*
X116500000Y-83040000D03*
X116500000Y-85580000D03*
X116500000Y-88120000D03*
X124120000Y-88120000D03*
X124120000Y-85580000D03*
X124120000Y-83040000D03*
X124120000Y-80500000D03*
%TD*%
D16*
%TO.C,U2*%
X101121800Y-78555000D03*
X101121800Y-79825000D03*
X101121800Y-81095000D03*
X101121800Y-82365000D03*
X101121800Y-83635000D03*
X101121800Y-84905000D03*
X101121800Y-86175000D03*
X101121800Y-87445000D03*
X107878200Y-87445000D03*
X107878200Y-86175000D03*
X107878200Y-84905000D03*
X107878200Y-83635000D03*
X107878200Y-82365000D03*
X107878200Y-81095000D03*
X107878200Y-79825000D03*
X107878200Y-78555000D03*
%TD*%
D17*
%TO.C,J2*%
X112000000Y-87000000D03*
%TD*%
D10*
%TO.C,D4*%
X83000000Y-92500000D03*
D11*
X85540000Y-92500000D03*
%TD*%
D17*
%TO.C,J1*%
X117670000Y-103030000D03*
D18*
X117670000Y-105570000D03*
%TD*%
D10*
%TO.C,D2*%
X101000000Y-68000000D03*
D11*
X103540000Y-68000000D03*
%TD*%
D10*
%TO.C,D5*%
X87000000Y-105000000D03*
D11*
X89540000Y-105000000D03*
%TD*%
D15*
%TO.C,C1*%
X118219775Y-93190000D03*
D14*
X120219775Y-93190000D03*
%TD*%
D19*
%TO.C,C2*%
X117400000Y-98710000D03*
X122400000Y-98710000D03*
%TD*%
D14*
%TO.C,R2*%
X106180000Y-102760000D03*
X113800000Y-102760000D03*
%TD*%
D10*
%TO.C,D3*%
X86500000Y-80000000D03*
D11*
X89040000Y-80000000D03*
%TD*%
D10*
%TO.C,D8*%
X131000000Y-106500000D03*
D11*
X133540000Y-106500000D03*
%TD*%
M02*
